<?xml version="1.0" encoding="iso-8859-1"?>
<!-- Uploaded to: SVG Repo, www.svgrepo.com, Generator: SVG Repo Mixer Tools -->
<svg height="800px" width="800px" version="1.1" id="Capa_1" xmlns="http://www.w3.org/2000/svg" xmlns:xlink="http://www.w3.org/1999/xlink" 
	 viewBox="0 0 470 470" xml:space="preserve">
<g>
	<path style="fill:#A3E175;" d="M235,15C113.691,15,15,113.691,15,235s98.691,220,220,220s220-98.691,220-220S356.309,15,235,15z
		 M45,235c0,4.142-3.357,7.5-7.5,7.5S30,239.142,30,235c0-113.038,91.963-205,205-205c4.143,0,7.5,3.358,7.5,7.5S239.143,45,235,45
		C130.233,45,45,130.234,45,235z M129.893,235c0-57.957,47.151-105.107,105.107-105.107S340.107,177.043,340.107,235
		S292.956,340.107,235,340.107S129.893,292.957,129.893,235z M235,370.107c-4.143,0-7.5-3.358-7.5-7.5s3.357-7.5,7.5-7.5
		c66.228,0,120.107-53.88,120.107-120.107c0-4.142,3.357-7.5,7.5-7.5s7.5,3.358,7.5,7.5
		C370.107,309.499,309.498,370.107,235,370.107z"/>
	<path style="fill:#3D2A20;" d="M401.17,68.83C356.784,24.444,297.771,0,235,0S113.216,24.444,68.83,68.83S0,172.229,0,235
		c0,62.771,24.444,121.785,68.83,166.17C113.216,445.556,172.229,470,235,470s121.784-24.444,166.17-68.83
		C445.556,356.785,470,297.771,470,235C470,172.229,445.556,113.216,401.17,68.83z M235,455c-121.309,0-220-98.691-220-220
		S113.691,15,235,15s220,98.691,220,220S356.309,455,235,455z"/>
	<path style="fill:#3D2A20;" d="M340.107,235c0-57.957-47.151-105.107-105.107-105.107S129.893,177.043,129.893,235
		S177.044,340.107,235,340.107S340.107,292.957,340.107,235z M235,144.893c49.686,0,90.107,40.422,90.107,90.107
		S284.686,325.107,235,325.107S144.893,284.686,144.893,235S185.314,144.893,235,144.893z"/>
	<path style="fill:#FFFFFF;" d="M242.5,37.5c0-4.142-3.357-7.5-7.5-7.5C121.963,30,30,121.962,30,235c0,4.142,3.357,7.5,7.5,7.5
		s7.5-3.358,7.5-7.5c0-104.766,85.233-190,190-190C239.143,45,242.5,41.642,242.5,37.5z"/>
	<path style="fill:#FFFFFF;" d="M362.607,227.5c-4.143,0-7.5,3.358-7.5,7.5c0,66.228-53.88,120.107-120.107,120.107
		c-4.143,0-7.5,3.358-7.5,7.5s3.357,7.5,7.5,7.5c74.498,0,135.107-60.609,135.107-135.107
		C370.107,230.858,366.75,227.5,362.607,227.5z"/>
</g>
</svg>